<?xml version="1.0" standalone="no"?>
<!DOCTYPE svg PUBLIC "-//W3C//DTD SVG 20010904//EN"
 "http://www.w3.org/TR/2001/REC-SVG-20010904/DTD/svg10.dtd">
<svg version="1.0" xmlns="http://www.w3.org/2000/svg"
 width="272.000000pt" height="106.000000pt" viewBox="0 0 272.000000 106.000000"
 preserveAspectRatio="xMidYMid meet">

<g transform="translate(0.000000,106.000000) scale(0.100000,-0.100000)"
fill="#000000" stroke="none">
<path d="M1396 911 c-21 -24 -14 -57 15 -66 39 -13 67 43 37 73 -17 17 -32 15
-52 -7z"/>
<path d="M1868 913 c-29 -18 -48 -59 -48 -99 0 -17 -6 -24 -20 -24 -13 0 -20
-7 -20 -20 0 -13 7 -20 20 -20 19 0 20 -7 20 -90 0 -71 -3 -92 -15 -96 -8 -4
-15 -15 -15 -25 0 -17 8 -19 70 -19 63 0 70 2 70 20 0 13 -7 20 -20 20 -20 0
-21 5 -18 93 l3 92 28 3 c19 2 27 9 27 23 0 14 -7 19 -30 19 -27 0 -30 3 -30
34 0 19 3 41 6 50 9 22 31 20 37 -4 5 -21 41 -28 52 -10 19 31 25 -3 25 -140
0 -125 -3 -152 -15 -156 -8 -4 -15 -15 -15 -25 0 -17 8 -19 70 -19 63 0 70 2
70 20 0 13 -7 20 -20 20 -20 0 -20 5 -19 183 l1 182 -23 -3 c-34 -5 -78 -4
-124 3 -29 4 -48 0 -67 -12z"/>
<path d="M1373 783 c-25 -3 -33 -9 -33 -24 0 -12 7 -19 20 -19 19 0 20 -7 20
-90 0 -71 -3 -92 -15 -96 -8 -4 -15 -12 -15 -19 0 -13 86 -24 124 -17 21 4 21
30 0 34 -14 3 -16 19 -15 121 l2 117 -28 -2 c-15 0 -43 -3 -60 -5z"/>
<path d="M2140 770 c0 -11 5 -20 11 -20 5 0 15 -14 21 -31 6 -17 32 -72 58
-123 l47 -92 -15 -40 c-20 -51 -20 -51 -35 -30 -18 25 -51 17 -55 -14 -4 -26
20 -50 50 -50 37 0 64 46 122 208 33 90 65 166 72 169 8 3 14 14 14 24 0 16
-8 19 -45 19 -38 0 -45 -3 -45 -20 0 -11 6 -20 14 -20 11 0 8 -13 -10 -57 -13
-32 -24 -66 -24 -75 0 -34 -18 -17 -44 43 -28 64 -32 89 -16 89 6 0 10 9 10
20 0 18 -7 20 -65 20 -58 0 -65 -2 -65 -20z"/>
<path d="M670 763 c-43 -9 -107 -61 -129 -106 -17 -36 -21 -62 -21 -149 l0
-106 43 10 c53 11 104 52 131 104 17 31 22 62 24 147 4 114 6 110 -48 100z"/>
<path d="M1537 713 c-4 -3 -7 -17 -7 -30 0 -23 2 -23 100 -23 l100 0 0 30 0
30 -93 0 c-52 0 -97 -3 -100 -7z"/>
<path d="M402 658 c-27 -27 -7 -78 29 -78 21 0 49 26 49 45 0 35 -53 58 -78
33z"/>
<path d="M362 472 c3 -72 8 -94 27 -121 21 -30 73 -61 101 -61 6 0 10 34 10
88 0 69 -4 94 -20 119 -21 35 -66 63 -101 63 -21 0 -21 -3 -17 -88z"/>
<path d="M520 371 c0 -11 11 -32 24 -48 21 -25 31 -28 101 -31 77 -4 77 -4 70
19 -3 13 -20 36 -36 52 -26 24 -37 27 -94 27 -58 0 -65 -2 -65 -19z"/>
<path d="M1511 291 c0 -39 4 -73 9 -76 6 -4 10 22 10 69 0 42 -4 76 -9 76 -5
0 -9 -31 -10 -69z"/>
<path d="M2393 285 c0 -44 2 -61 4 -37 2 23 2 59 0 80 -2 20 -4 1 -4 -43z"/>
<path d="M1950 281 c0 -39 4 -71 8 -71 12 0 14 128 2 135 -6 4 -10 -19 -10
-64z"/>
<path d="M1357 323 c3 -10 9 -22 13 -28 4 -5 13 -27 19 -47 7 -21 16 -38 21
-38 5 0 -3 29 -18 65 -15 36 -30 65 -34 65 -4 0 -5 -8 -1 -17z"/>
<path d="M2015 310 c0 -15 3 -26 8 -23 4 2 7 13 7 23 0 10 -3 21 -7 23 -5 3
-8 -8 -8 -23z"/>
<path d="M1740 261 c0 -28 4 -51 10 -51 12 0 11 88 -1 96 -5 3 -9 -18 -9 -45z"/>
<path d="M2108 299 c6 -7 12 -30 12 -51 0 -21 3 -38 8 -38 4 0 6 20 4 44 -3
30 -9 47 -20 51 -14 5 -15 4 -4 -6z"/>
<path d="M2238 262 c6 -62 12 -67 12 -9 0 25 -4 48 -9 51 -5 3 -6 -16 -3 -42z"/>
<path d="M1563 255 c0 -27 2 -38 4 -22 2 15 2 37 0 50 -2 12 -4 0 -4 -28z"/>
<path d="M1698 263 c5 -59 10 -63 11 -10 1 26 -3 47 -7 47 -4 0 -6 -17 -4 -37z"/>
<path d="M1793 255 c0 -27 2 -38 4 -22 2 15 2 37 0 50 -2 12 -4 0 -4 -28z"/>
<path d="M1861 258 c-1 -27 3 -48 7 -48 4 0 6 17 4 38 -5 58 -10 62 -11 10z"/>
<path d="M2168 263 c5 -59 10 -63 11 -10 1 26 -3 47 -7 47 -4 0 -6 -17 -4 -37z"/>
<path d="M1632 265 c0 -16 2 -22 5 -12 2 9 2 23 0 30 -3 6 -5 -1 -5 -18z"/>
<path d="M1441 263 c0 -12 6 -29 15 -37 21 -22 31 -20 12 2 -9 9 -18 26 -21
37 -4 19 -5 18 -6 -2z"/>
<path d="M2283 256 c2 -21 9 -31 27 -38 l25 -8 -22 17 c-11 10 -24 27 -26 38
-4 12 -5 9 -4 -9z"/>
<path d="M2050 236 c0 -2 7 -9 15 -16 13 -11 14 -10 9 4 -5 14 -24 23 -24 12z"/>
</g>
</svg>
