<?xml version="1.0" standalone="no"?>
<!DOCTYPE svg PUBLIC "-//W3C//DTD SVG 20010904//EN"
 "http://www.w3.org/TR/2001/REC-SVG-20010904/DTD/svg10.dtd">
<svg version="1.0" xmlns="http://www.w3.org/2000/svg"
 width="141.000000pt" height="89.000000pt" viewBox="0 0 141.000000 89.000000"
 preserveAspectRatio="xMidYMid meet">

<g transform="translate(0.000000,89.000000) scale(0.100000,-0.100000)"
fill="#000000" stroke="none">
<path d="M365 856 c-126 -55 -145 -254 -38 -394 14 -19 29 -49 32 -66 5 -21
16 -36 37 -47 l31 -15 -28 -48 -27 -49 -27 54 c-15 30 -29 56 -30 57 -9 10
-169 -85 -195 -114 -39 -45 -42 -109 -6 -143 53 -50 253 -78 448 -62 183 16
248 49 248 127 0 60 -40 103 -143 154 l-81 41 -29 -56 -30 -56 -28 47 -27 47
31 16 c21 11 33 26 38 46 3 17 20 50 37 73 46 65 65 131 60 216 -3 61 -8 79
-32 110 -43 57 -81 76 -151 76 -33 -1 -74 -7 -90 -14z"/>
<path d="M970 535 c0 -13 172 -185 185 -185 13 0 191 178 184 184 -3 3 -45
-35 -94 -84 l-90 -90 -92 92 c-51 51 -93 88 -93 83z"/>
</g>
</svg>
